# AST/ASF file generated using VICON BodyLanguage
# -----------------------------------------------
:version 1.10
:name VICON
:units
  mass 1.0
  length 0.45
  angle deg
:documentation
   .ast/.asf automatically generated from VICON data using
   VICON BodyBuilder and BodyLanguage model FoxedUp or BRILLIANT.MOD
:root
   order TX TY TZ RX RY RZ
   axis XYZ
   position 0 0 0  
   orientation 0 0 0 
:bonedata
  begin
     id 1 
     name lhipjoint
     direction 0.541323 -0.757556 0.364798 
     length 2.47576 
     axis 0 0 0  XYZ
  end
  begin
     id 2 
     name lfemur
     direction 0.34202 -0.939693 0  
     length 7.46493  
     axis 0 0 20  XYZ
    dof rx ry rz
    limits (-160.0 20.0)
           (-70.0 70.0)
           (-60.0 70.0)
  end
  begin
     id 3 
     name ltibia
     direction 0.34202 -0.939693 0   
     length 7.73805   
     axis 0 0 20   XYZ
    dof rx
    limits (-10.0 170.0)
  end
  begin
     id 4 
     name lfoot
     direction 0.107174 -0.294458 0.949636   
     length 2.25864   
     axis -90 7.62852e-016 20   XYZ
    dof rx rz
    limits (-45.0 90.0)
           (-70.0 20.0)
  end
  begin
     id 5 
     name ltoes
     direction 1.53606e-011 -4.21934e-011 1   
     length 1.12451   
     axis -90 7.62852e-016 20   XYZ
    dof rx
    limits (-90.0 20.0)
  end
  begin
     id 6 
     name rhipjoint
     direction -0.524745 -0.766967 0.36933   
     length 2.44538  
     axis 0 0 0  XYZ 
  end
  begin
     id 7 
     name rfemur
     direction -0.34202 -0.939693 0   
     length 7.61604   
     axis 0 0 -20   XYZ
    dof rx ry rz
    limits (-160.0 20.0)
           (-70.0 70.0)
           (-70.0 60.0)
  end
  begin
     id 8 
     name rtibia
     direction -0.34202 -0.939693 0   
     length 7.61056   
     axis 0 0 -20   XYZ
    dof rx
    limits (-10.0 170.0)
 end
 begin
     id 9 
     name rfoot
     direction -0.12616 -0.346623 0.929482   
     length 2.46372  
     axis -90 -7.62852e-016 -20   XYZ
    dof rx rz
    limits (-45.0 90.0)
           (-20.0 70.0)
  end
  begin
     id 10 
     name rtoes
     direction -1.53531e-011 -4.22004e-011 1   
     length 1.21611   
     axis -90 -7.62852e-016 -20   XYZ
    dof rx
    limits (-90.0 20.0)
  end
  begin
     id 11 
     name lowerback
     direction -0.000778023 0.997293 -0.0735223   
     length 2.06139   
     axis 0 0 0   XYZ
    dof rx ry rz
    limits (-20.0 45.0)
           (-30.0 30.0)
           (-30.0 30.0)
  end
  begin
     id 12 
     name upperback
     direction 0.0222598 0.999722 -0.0078355   
     length 2.06383   
     axis 0 0 0   XYZ
    dof rx ry rz
    limits (-20.0 45.0)
           (-30.0 30.0)
           (-30.0 30.0)
  end
  begin
     id 13 
     name thorax
     direction 0.0219654 0.999405 0.0265994   
     length 2.07163   
     axis 0 0 0   XYZ
    dof rx ry rz
    limits (-20.0 45.0)
           (-30.0 30.0)
           (-30.0 30.0)
  end
  begin
     id 14 
     name lowerneck
     direction 0.0213282 0.988147 0.15202   
     length 1.75969   
     axis 0 0 0   XYZ
    dof rx ry rz
    limits (-20.0 45.0)
           (-30.0 30.0)
           (-30.0 30.0)
  end
  begin
     id 15 
     name upperneck
     direction -0.0546456 0.982624 -0.177379   
     length 1.79244   
     axis 0 0 0   XYZ
    dof rx ry rz
    limits (-20.0 45.0)
           (-30.0 30.0)
           (-30.0 30.0)
  end
  begin
     id 16
     name head
     direction -0.0199987 0.996855 -0.076686  
     length 1.80555  
     axis 0 0 0   XYZ
    dof rx ry rz
    limits (-20.0 45.0)
           (-30.0 30.0)
           (-30.0 30.0)
  end
  begin
     id 17 
     name lclavicle
     direction 0.929565 0.363219 -0.063096  
     length 3.55722  
     axis 0 0 0   XYZ
    dof ry rz
    limits (-20.0 10.0)
           (0.0 20.0)
  end
  begin
     id 18 
     name lhumerus
     direction 1 -4.48993e-011 -2.36203e-027   
     length 4.92785   
     axis 180 -30 -90   XYZ
    dof rx ry rz
    limits (-60.0 90.0)
           (-90.0 90.0)
           (-90.0 90.0)
  end
  begin
     id 19
     name lradius
     direction 1 -4.48947e-011 2.02997e-027   
     length 3.44052   
     axis 180 -30 -90   XYZ
    dof rx
    limits (-10.0 170.0)
  end
  begin
     id 20
     name lwrist
     direction 1 -4.48962e-011 1.45991e-027   
     length 1.72026   
     axis 1.49639e-024 90 90   XYZ
    dof ry
    limits (-180.0 0.0)
 end
  begin
     id 21 
     name lhand
     direction 1 -4.48984e-011 2.91906e-027   
     length 0.654326   
     axis -1.863e-015 90 90   XYZ
    dof rx rz
    limits (-90.0 90.0)
           (-45.0 45.0)
  end
  begin
     id 22 
     name lfingers
     direction 1 -4.48961e-011 5.83968e-027   
     length 0.527534   
     axis -3.72598e-015 90 90   XYZ
    dof rx
    limits (0.0 90.0)
  end
  begin
     id 23
     name lthumb
     direction 0.707107 -6.34963e-011 0.707107   
     length 0.757437   
     axis -90 45 -6.68868e-015   XYZ
    dof rx rz
    limits (-45.0 45.0)
           (-45.0 45.0)
  end
  begin
     id 24 
     name rclavicle
     direction -0.902944 0.422599 -0.0781198   
     length 3.54432  
     axis 0 0 0   XYZ 
    dof ry rz
    limits (-10.0 20.0)
           (-20.0 0.0)
  end
  begin
     id 25 
     name rhumerus
     direction -1 -4.48953e-011 -4.75835e-028  
     length 5.09181   
     axis 180 30 90   XYZ
    dof rx ry rz
    limits (-90.0 60.0)
           (-90.0 90.0)
           (-90.0 90.0)
  end
  begin
     id 26 
     name rradius
     direction -1 -4.48986e-011 -3.25889e-027   
     length 3.49865   
     axis 180 30 90   XYZ
    dof rx
    limits (-10.0 170.0)
  end
  begin
     id 27 
     name rwrist
     direction -1 -4.48963e-011 1.45989e-027   
     length 1.74933   
     axis 1.49639e-024 -90 -90   XYZ
    dof ry
    limits (-180.0 0.0)
  end
  begin
     id 28
     name rhand
     direction -1 -4.49003e-011 2.91844e-027   
     length 0.66641   
     axis -1.863e-015 -90 -90   XYZ
    dof rx rz
    limits (-90.0 90.0)
           (-45.0 45.0)
  end
  begin
     id 29
     name rfingers
     direction -1 -4.48973e-011 5.83886e-027   
     length 0.537277   
     axis -3.72598e-015 -90 -90   XYZ
    dof rx
    limits (0.0 90.0)
  end
  begin
     id 30
     name rthumb
     direction -0.707107 -6.34976e-011 0.707107   
     length 0.771425   
     axis -90 -45 6.68868e-015   XYZ
    dof rx rz
    limits (-45.0 45.0)
           (-45.0 45.0)
  end
:hierarchy
  begin
    root lhipjoint rhipjoint lowerback
    lhipjoint lfemur
    lfemur ltibia
    ltibia lfoot
    lfoot ltoes
    rhipjoint rfemur
    rfemur rtibia
    rtibia rfoot
    rfoot rtoes
    lowerback upperback
    upperback thorax
    thorax lowerneck lclavicle rclavicle
    lowerneck upperneck
    upperneck head
    lclavicle lhumerus
    lhumerus lradius
    lradius lwrist
    lwrist lhand lthumb
    lhand lfingers
    rclavicle rhumerus
    rhumerus rradius
    rradius rwrist
    rwrist rhand rthumb
    rhand rfingers
  end

#!OML:ASF H:\LiuWeirdWalks\Patient Classification 1\Patient 1\Session 1\male.ASF
:FULLY-SPECIFIED
:DEGREES
97
root 0.382945 17.6995 -32.1598 1.9008 2.89325 -2.63233
lowerback 3.58601 5.00473 1.05765
upperback -3.55643 6.6254 -2.85905
thorax -5.23378 3.19082 -4.07059
lowerneck -17.9038 -6.5156 11.0899
upperneck 19.0262 -11.8851 -0.619061
head 8.20886 -4.85996 -3.35468
rclavicle 3.60794e-014 -1.27222e-014
rhumerus -44.2373 -32.7683 -71.0814
rradius 22.2471
rwrist 3.99142
rhand -16.314 -6.63755
rfingers 7.12502
rthumb 9.89727 -36.3849
lclavicle 3.60794e-014 -1.27222e-014
lhumerus -37.4533 -18.1404 82.7894
lradius 27.7171
lwrist 11.5125
lhand -13.0727 3.37856
lfingers 7.12502
lthumb 13.0231 32.952
rfemur -9.9196 -3.23695 20.1129
rtibia 33.6251
rfoot -18.0164 -19.7776
rtoes -3.03013
lfemur -12.1391 -0.89867 -17.0649
ltibia 33.6735
lfoot -15.6106 15.4205
ltoes -6.50636
98
root 0.386081 17.6998 -32.1604 1.90721 2.88804 -2.62675
lowerback 3.58539 5.0146 1.06488
upperback -3.55812 6.63837 -2.87462
thorax -5.23165 3.19676 -4.09156
lowerneck -17.8932 -6.5521 11.0468
upperneck 19.0704 -11.9463 -0.52467
head 8.22818 -4.87827 -3.32514
rclavicle -7.23079e-014 -1.11319e-014
rhumerus -44.2408 -32.8304 -71.0874
rradius 22.286
rwrist 3.96028
rhand -16.3505 -6.57921
rfingers 7.12502
rthumb 9.86199 -36.3282
lclavicle -7.23079e-014 -1.11319e-014
lhumerus -37.4272 -18.1325 82.7167
lradius 27.6685
lwrist 11.4983
lhand -13.0929 3.41517
lfingers 7.12502
lthumb 13.0037 32.9899
rfemur -9.92816 -3.2277 20.0965
rtibia 33.6238
rfoot -17.9971 -19.7821
rtoes -3.05894
lfemur -12.1496 -0.868573 -17.0789
ltibia 33.6765
lfoot -15.6186 15.3952
ltoes -6.50028
99
root 0.388825 17.7001 -32.1618 1.91188 2.90439 -2.62782
lowerback 3.61876 5.0788 1.11001
upperback -3.58425 6.72287 -2.96545
thorax -5.25622 3.23462 -4.22125
lowerneck -17.8305 -6.67763 11.0961
upperneck 19.0773 -12.1552 -0.379799
head 8.21587 -4.95747 -3.30268
rclavicle -4.66647e-014 1.59028e-014
rhumerus -44.377 -33.0791 -71.0692
rradius 22.3704
rwrist 3.90675
rhand -16.3732 -6.50847
rfingers 7.12502
rthumb 9.84009 -36.2585
lclavicle -4.66647e-014 1.59028e-014
lhumerus -37.3936 -18.4183 82.6423
lradius 27.6255
lwrist 11.5225
lhand -13.1013 3.41937
lfingers 7.12502
lthumb 12.9955 32.9946
rfemur -9.93639 -3.22165 20.0914
rtibia 33.6242
rfoot -17.9832 -19.8038
rtoes -3.08074
lfemur -12.1663 -0.851687 -17.083
ltibia 33.6804
lfoot -15.6208 15.3607
ltoes -6.49612
100
root 0.390366 17.7002 -32.1645 1.91118 2.92717 -2.63974
lowerback 3.64509 5.04977 1.14766
upperback -3.61982 6.68691 -2.94893
thorax -5.30901 3.21397 -4.2279
lowerneck -17.8458 -6.55611 11.2463
upperneck 19.1496 -11.9943 -0.56921
head 8.22992 -4.88764 -3.3743
rclavicle -1.88348e-014 -9.54166e-015
rhumerus -44.3927 -32.946 -71.1171
rradius 22.4344
rwrist 3.81668
rhand -16.3841 -6.42265
rfingers 7.12502
rthumb 9.82961 -36.1732
lclavicle -1.88348e-014 -9.54166e-015
lhumerus -37.4601 -18.2881 82.5889
lradius 27.5709
lwrist 11.4433
lhand -13.0946 3.37756
lfingers 7.12502
lthumb 13.002 32.9524
rfemur -9.94197 -3.21142 20.1075
rtibia 33.6263
rfoot -17.9696 -19.8393
rtoes -3.09981
lfemur -12.1846 -0.777606 -17.0617
ltibia 33.6837
lfoot -15.623 15.2655
ltoes -6.49991
101
root 0.392533 17.7001 -32.1661 1.90313 2.94698 -2.63643
lowerback 3.67088 5.07862 1.19323
upperback -3.63558 6.72571 -3.00754
thorax -5.32531 3.2299 -4.32004
lowerneck -17.8641 -6.55435 11.4178
upperneck 19.1858 -12.0289 -0.631442
head 8.22927 -4.89643 -3.42511
rclavicle -6.93758e-014 -2.22639e-014
rhumerus -44.4502 -33.0284 -71.1725
rradius 22.5294
rwrist 3.71535
rhand -16.3839 -6.35054
rfingers 7.12502
rthumb 9.82979 -36.1011
lclavicle -6.93758e-014 -2.22639e-014
lhumerus -37.4443 -18.4235 82.5134
lradius 27.5257
lwrist 11.4151
lhand -13.067 3.33853
lfingers 7.12502
lthumb 13.0286 32.9117
rfemur -9.93615 -3.2237 20.0985
rtibia 33.6314
rfoot -17.9612 -19.8509
rtoes -3.12094
lfemur -12.1846 -0.724862 -17.0644
ltibia 33.6815
lfoot -15.6248 15.1951
ltoes -6.50328
102
root 0.395176 17.6997 -32.1666 1.88662 2.96109 -2.6156
lowerback 3.63325 5.00664 1.17157
upperback -3.62511 6.63155 -2.93052
thorax -5.31145 3.1858 -4.21737
lowerneck -17.8815 -6.37394 11.4861
upperneck 19.2317 -11.7577 -0.849117
head 8.24462 -4.78506 -3.48285
rclavicle 9.93923e-017 2.70347e-014
rhumerus -44.3089 -32.6972 -71.294
rradius 22.5874
rwrist 3.58367
rhand -16.378 -6.28755
rfingers 7.12502
rthumb 9.83549 -36.0378
lclavicle 9.93923e-017 2.70347e-014
lhumerus -37.4925 -18.0644 82.4782
lradius 27.4621
lwrist 11.2877
lhand -13.0456 3.29655
lfingers 7.12502
lthumb 13.0493 32.8684
rfemur -9.91755 -3.25098 20.0637
rtibia 33.6414
rfoot -17.9667 -19.8422
rtoes -3.13157
lfemur -12.1622 -0.668932 -17.09
ltibia 33.6691
lfoot -15.6288 15.1289
ltoes -6.5052
103
root 0.398855 17.6991 -32.1656 1.8667 2.96583 -2.56897
lowerback 3.59186 4.99093 1.14752
upperback -3.62609 6.60966 -2.91592
thorax -5.29491 3.17657 -4.18329
lowerneck -17.8251 -6.2988 11.5667
upperneck 19.2416 -11.6416 -0.97232
head 8.23189 -4.73884 -3.52133
rclavicle -1.65985e-014 -2.54444e-014
rhumerus -44.2721 -32.5264 -71.3785
rradius 22.679
rwrist 3.42791
rhand -16.3696 -6.24465
rfingers 7.12502
rthumb 9.84357 -35.9946
lclavicle -1.65985e-014 -2.54444e-014
lhumerus -37.5409 -17.9432 82.4589
lradius 27.4162
lwrist 11.2117
lhand -13.0277 3.30531
lfingers 7.12502
lthumb 13.0665 32.876
rfemur -9.89174 -3.30444 19.9885
rtibia 33.6562
rfoot -17.9735 -19.7998
rtoes -3.15635
lfemur -12.1184 -0.636409 -17.1543
ltibia 33.6442
lfoot -15.6343 15.0967
ltoes -6.50867
104
root 0.403371 17.6986 -32.1634 1.84907 2.96334 -2.50024
lowerback 3.54812 5.02512 1.10903
upperback -3.60568 6.65101 -2.96375
thorax -5.2442 3.19923 -4.20821
lowerneck -17.7444 -6.36633 11.5674
upperneck 19.189 -11.7388 -0.882066
head 8.20039 -4.77898 -3.49505
rclavicle 1.01231e-013 -2.70347e-014
rhumerus -44.2433 -32.567 -71.4653
rradius 22.7834
rwrist 3.28133
rhand -16.3659 -6.22738
rfingers 7.12502
rthumb 9.84713 -35.9771
lclavicle 1.01231e-013 -2.70347e-014
lhumerus -37.5062 -18.055 82.4265
lradius 27.3808
lwrist 11.1924
lhand -13.0247 3.34798
lfingers 7.12502
lthumb 13.0694 32.9185
rfemur -9.86595 -3.36806 19.8807
rtibia 33.6746
rfoot -17.9839 -19.7385
rtoes -3.18061
lfemur -12.0645 -0.629784 -17.2515
ltibia 33.6099
lfoot -15.6376 15.0957
ltoes -6.50656
105
root 0.408267 17.6983 -32.161 1.83939 2.94777 -2.43254
lowerback 3.45511 4.99282 1.02609
upperback -3.56957 6.60526 -2.91313
thorax -5.17179 3.18267 -4.09489
lowerneck -17.6338 -6.35204 11.4375
upperneck 19.1355 -11.6753 -0.837508
head 8.17709 -4.75796 -3.44799
rclavicle -7.15625e-015 1.27222e-014
rhumerus -44.0673 -32.334 -71.5963
rradius 22.8581
rwrist 3.1279
rhand -16.3636 -6.20737
rfingers 7.12502
rthumb 9.84936 -35.957
lclavicle -7.15625e-015 1.27222e-014
lhumerus -37.5045 -17.8241 82.4197
lradius 27.3306
lwrist 11.098
lhand -13.0155 3.38047
lfingers 7.12502
lthumb 13.0782 32.9504
rfemur -9.85152 -3.42214 19.7718
rtibia 33.6934
rfoot -18.0039 -19.671
rtoes -3.18622
lfemur -12.0154 -0.639457 -17.3522
ltibia 33.5728
lfoot -15.6397 15.1206
ltoes -6.49724
